<svg width="20" height="6" viewBox="0 0 20 6" fill="none" xmlns="http://www.w3.org/2000/svg">
<path d="M14.6667 2.99996C14.6667 4.28329 15.7167 5.33329 17 5.33329C18.2833 5.33329 19.3333 4.28329 19.3333 2.99996C19.3333 1.71663 18.2833 0.666626 17 0.666626C15.7167 0.666626 14.6667 1.71663 14.6667 2.99996ZM12.3333 2.99996C12.3333 1.71663 11.2833 0.666626 10 0.666626C8.71666 0.666626 7.66666 1.71662 7.66666 2.99996C7.66666 4.28329 8.71666 5.33329 10 5.33329C11.2833 5.33329 12.3333 4.28329 12.3333 2.99996ZM5.33333 2.99996C5.33333 1.71662 4.28333 0.666625 3 0.666625C1.71666 0.666625 0.666662 1.71662 0.666662 2.99996C0.666662 4.28329 1.71666 5.33329 3 5.33329C4.28333 5.33329 5.33333 4.28329 5.33333 2.99996Z" fill="black"/>
</svg>
